<svg id="Layer_1" data-name="Layer 1" xmlns="http://www.w3.org/2000/svg" viewBox="0 0 953.78 190.43"><defs><style>.cls-1{fill:#ed2024;}.cls-2{fill:#fff;}</style></defs><g id="Layer_2" data-name="Layer 2"><path class="cls-1" d="M795.9,82.42s-4.21,24.67,4,39.84c0,0-20.24,7.4-25.25,19.24,0,0,155.8,45,163.42,44.18,1.38-.13-111.06-59.13-142.17-103.26" transform="translate(-33.11 -43.46)"/></g><text x="-33.11" y="-43.46"/><path class="cls-2" d="M47.31,96.9V92.7c0-13.6,7.6-27.8,19-36.8a45.4,45.4,0,0,1,24.6-10.4c7.6,0,13.8,2.2,17.4,5.6,2.8,2.8,2.8,6,1.8,9a16.54,16.54,0,0,1-7.2,8.8c-3.4,2-5.4,1.4-7.4-.4-4.8-5-10.8-11.4-16.4-11.4-5.4,0-6.2,5.4-6,31.2v8.6h18.4c.8,2,0,8.4-2.8,10H73.11v57c0,12.4,1.4,13.4,14.2,15v6.8H35.51v-6.8c11.2-1.6,11.8-2.6,11.8-15v-57H34.11l-1-2.6,5.2-7.4Z" transform="translate(-33.11 -43.46)"/><path class="cls-2" d="M198.11,180.89c-12,1.6-24.8,4.2-38,7.2v-13.6c-8.2,6.8-16.6,13.6-27.6,13.6-16.8,0-26.2-10.8-26.2-28.6V118.1c0-9.2-1.2-10.2-6.6-11.6l-4.2-1.2V98.9c10.2-.4,26-1.8,37.2-3.4-.4,8.4-.6,18.8-.6,30.2v29.19c0,13,6.6,17.4,13.6,17.4,5.6,0,10-1.2,14.4-5.8V118.3c0-9.2-1-10.8-6.6-11.8l-6-1.2V98.9a374.64,374.64,0,0,0,38.6-3.4v65.19c0,10.4,1.2,12.6,7.6,13.2l4.4.4Z" transform="translate(-33.11 -43.46)"/><path class="cls-2" d="M260.31,185.69h-52.8v-6.8c10.6-1.2,11.6-2.2,11.6-14.2V120.9c0-10-.8-11-10.2-13v-6.2a192.59,192.59,0,0,0,36-7.6v21.6c9-13.8,16.2-21.2,24.4-21.2,7.4,0,13,5,13,12a19.45,19.45,0,0,1-10.2,17,5.5,5.5,0,0,1-6.2-1c-3.4-2.8-6-6-9.4-6-3,0-8,2.6-11.6,10.2v38c0,12,1.4,12.6,15.4,14.2Z" transform="translate(-33.11 -43.46)"/><path class="cls-2" d="M343.31,185.69h-52.8v-6.8c10.6-1.2,11.6-2.2,11.6-14.2V120.9c0-10-.8-11-10.2-13v-6.2a192.59,192.59,0,0,0,36-7.6v21.6c9-13.8,16.2-21.2,24.4-21.2,7.4,0,13,5,13,12a19.45,19.45,0,0,1-10.2,17,5.5,5.5,0,0,1-6.2-1c-3.4-2.8-6-6-9.4-6-3,0-8,2.6-11.6,10.2v38c0,12,1.4,12.6,15.4,14.2Z" transform="translate(-33.11 -43.46)"/><path class="cls-2" d="M472.9,103.7c-9.6,1.4-11.6,3.4-16.6,14.2-5,10.39-10.6,25.39-22.2,53.19-13.6,32.4-17.39,45.6-21.2,57-1.4,4.4-3.8,5.8-7.19,5.8-7.8,0-15.8-5.8-15.8-12.8,0-3.2,1.2-4.8,5.39-7.4,7.8-4.4,13.2-8.2,16.8-14.4a72.47,72.47,0,0,0,5-11.2c.8-2.8.4-4.6-.8-7.6-10.39-28.8-23.19-56.19-26.8-64.59s-6-10.8-15.59-12.2V96.9h50v6.8c-8.6,1.4-10,2.8-7.8,9l15.6,42.19c4.4-11,11.6-29.39,15.2-40.59,2-6.4-.6-9-10.6-10.6V96.9h36.6Z" transform="translate(-33.11 -43.46)"/><path class="cls-2" d="M532.5,147.29H482.1l1.6-15.59h50.4Z" transform="translate(-33.11 -43.46)"/><path class="cls-2" d="M606.3,185.69v-6.8c9.8-1.2,10.8-2.6,10.8-14.4V121.1c0-12.4-.6-14-10.4-14H585.3v57.79c0,11.2,2,12.6,11.8,14v6.8H547.3v-6.8c10.4-1.2,12.2-2.8,12.2-14V107.1H546.3l-1-2.6,5.2-7.6h9c.2-16,8.2-30.4,20.4-39.8,9.2-7.2,21.6-11.6,30.6-11.6,13.8.2,21.6,4.4,26.4,9.4a10.79,10.79,0,0,1,2.8,7.4c-.4,4.2-4.4,9.6-8.2,11.6-4,2.2-7.4,1.4-10.4-2-3.4-4.2-12.6-15-23.8-15-5.6,0-8.4,2.6-10,9.8-1.2,5.2-2,17-2,25.6v4.6h20c9.6,0,26.6-.4,37.8-2.4v70c0,11.8,1.4,13.2,13,14.4v6.8Z" transform="translate(-33.11 -43.46)"/><path class="cls-2" d="M744.5,166.09c-12.2,18-28.2,22-36.6,22-26.8,0-42-19.8-42-43.59a52.57,52.57,0,0,1,15-36c9-9,20.2-14,31.2-14,19.6,0,33.2,16.2,33,32.59,0,3.41-.2,6.8-2.6,7.41-3.8,1-32,2.39-51.4,3.2.8,21.19,12.6,32,27,32,7.8,0,15.6-2.8,22.8-9ZM708.1,102.7c-8,0-14.8,9.4-16,25.19,8.2-.19,15.8-.39,24.2-.6,2.8-.2,4-.59,4-4C720.5,113.3,715.9,102.7,708.1,102.7Z" transform="translate(-33.11 -43.46)"/><path class="cls-2" d="M813.3,122.9c-5.2-14-12-20.4-21.4-20.4a10.29,10.29,0,0,0-10.6,10.6c0,7,5,10.8,15.4,15.4,16.2,7.2,27.2,14,27.2,29.79,0,20-19,29.8-36.4,29.8-10.4,0-21.2-4-25.4-6-.8-4.6-2.6-18.4-3.2-25.4l6.6-1.2c4.2,12.6,12.4,24.4,25.4,24.4,7.6,0,11.4-4.6,11.4-10.4,0-6.2-3-10.8-15.4-16.8-13.2-6.4-26-13.4-26-30,0-15.8,13-28.2,34.2-28.2,9.6,0,17,2,21.6,3,.6,5.4,2.4,18.2,3.2,23.6Z" transform="translate(-33.11 -43.46)"/><path class="cls-2" d="M876.09,185.89a21.8,21.8,0,0,1-8,2.2c-15.39,0-24.59-7.2-24.59-25.4V106.9H830.7l-1.2-2.4,5.79-7.6h8.21V80.3c6.79-4.8,16.59-11.2,23.59-16l2.6,1.6c-.19,5.4-.6,16-.4,31h20c1.8,2,1,8.2-1.6,10h-18.4v49c0,15.6,6.4,17.4,10.2,17.4a24.32,24.32,0,0,0,9.6-2l2,7.2Z" transform="translate(-33.11 -43.46)"/><path class="cls-2" d="M965.5,188.09c-5.4,0-9.8-1.8-12.4-4.2a20,20,0,0,1-5.2-7.4c-7.6,5-17.4,11.6-21.2,11.6-17.2,0-27.2-13.4-27.2-25.8,0-10.6,4.8-15.4,15.4-19.6,11.8-4.4,27.6-9.19,32.2-13.19v-8.8c0-10.4-3.8-16.2-12.4-16.2a9.85,9.85,0,0,0-8,4c-2.4,3.2-3.2,7.2-4.8,13.2-1.4,5.39-4.6,6.8-8.6,6.8-5.2,0-11.8-4.8-11.8-10.4,0-3.6,2.4-6.2,7-9.4,9-6,20.8-11.8,32-14.2,8,0,14.79,1.8,20.6,5.8,8.6,6,11,14.4,11,24.6v34.59c0,9.6,3.2,12,6.41,12a15,15,0,0,0,6.2-1.6l2.19,6.8ZM947.1,137.7c-3.6,2-7.2,4-11.2,6.19-6.2,3.2-9.8,6.8-9.8,13.6,0,11.2,7.8,15.2,12.2,15.2,2.8,0,5.6-.2,8.8-3.2Z" transform="translate(-33.11 -43.46)"/><path class="cls-1" d="M66.61,55.4s16.66,2,24.38,7.85S97.36,69,99,69.76s2.83,2.28,6.18.16,5.88-8.53,6.14-10.07a11.08,11.08,0,0,0-.18-5,12.27,12.27,0,0,0-4.65-6c-1.45-.67-2.64-3-10.17-4.52s-8.73-.54-8.73-.54S79.05,46,76.51,48c0,0-3.56,2.14-5.34,3.23L69.4,52.32l-3,3Z" transform="translate(-33.11 -43.46)"/></svg>